<svg xmlns="http://www.w3.org/2000/svg" xmlns:xlink="http://www.w3.org/1999/xlink" viewBox="0 0 1131 265"><defs><style>.cls-1,.cls-8{fill:none;}.cls-2{clip-path:url(#clip-path);}.cls-3{opacity:0.5;}.cls-4{fill:#3f00ba;}.cls-5,.cls-8{opacity:0.3;}.cls-6{fill:#7648e5;}.cls-7{fill:#62f8f8;}.cls-10,.cls-8,.cls-9{stroke:#62f8f8;stroke-miterlimit:10;}.cls-10,.cls-9{opacity:0.2;}.cls-9{fill:url(#linear-gradient);}.cls-10{fill:url(#linear-gradient-2);}</style><clipPath id="clip-path" transform="translate(0 -8)"><path class="cls-1" d="M0,0H1130a0,0,0,0,1,0,0V241a32,32,0,0,1-32,32H32A32,32,0,0,1,0,241V0A0,0,0,0,1,0,0Z"/></clipPath><linearGradient id="linear-gradient" x1="753" y1="0.5" x2="753" y2="67.5" gradientUnits="userSpaceOnUse"><stop offset="0" stop-color="#3f00ba" stop-opacity="0.1"/><stop offset="0.15" stop-color="#a182dd" stop-opacity="0.05"/><stop offset="0.4" stop-color="#eae3f8" stop-opacity="0.01"/><stop offset="1" stop-color="#fff" stop-opacity="0"/></linearGradient><linearGradient id="linear-gradient-2" x1="420" y1="47" x2="420" y2="97" xlink:href="#linear-gradient"/></defs><g id="Layer_2" data-name="Layer 2"><g id="Layer_1-2" data-name="Layer 1"><g class="cls-2"><g class="cls-3"><path class="cls-4" d="M0,250.77s84.26-8.8,133.06-44.15S234.79,161,287.37,161.07c69.38.13,113.5,33.4,182.81,34.54S553.35,124.3,597.7,124.3s55.45,113,116.44,115.51,66.54-59.62,138.62-62.17,67.46,48.44,134,49.71S1131,183.78,1131,183.78V272L0,273Z" transform="translate(0 -8)"/></g><g class="cls-5"><path class="cls-6" d="M0,196.08S9.55,212,55.75,212,122,160.78,199.59,160.78s62.83,16.76,107.18,16.07,64.69-97.39,114.58-97.39,66.53,95.88,144.15,97.39S687.47,41,754,41,888.87,218.37,953.59,220.12c122,3.29,177.41-85.72,177.41-85.72V271.76L0,273Z" transform="translate(0 -8)"/></g><circle class="cls-7" cx="753" cy="34" r="13"/><circle class="cls-8" cx="753" cy="34" r="26.5"/><circle class="cls-9" cx="753" cy="34" r="33.5"/><circle class="cls-7" cx="420" cy="72" r="9.7"/><circle class="cls-8" cx="420" cy="72" r="19.78"/><circle class="cls-10" cx="420" cy="72" r="25"/></g></g></g></svg>